<mxfile host="app.diagrams.net" modified="2023-12-30T20:03:01.287Z" agent="Mozilla/5.0 (Windows NT 10.0; Win64; x64) AppleWebKit/537.36 (KHTML, like Gecko) Chrome/119.0.0.0 Safari/537.36 OPR/105.0.0.0" version="22.1.16" etag="WnmlqKiJ11sqCPDWSyhw" type="github">
  <diagram name="Page-1" id="ihej46Fy8raGkYUn52ul">
    <mxGraphModel>
      <root>
        <mxCell id="0" />
        <mxCell id="1" parent="0" />
      </root>
    </mxGraphModel>
  </diagram>
</mxfile>
